<?xml version="1.0" encoding="UTF-8" standalone="no"?><svg version="1.1" width="957.16" height="957.16" viewBox="0 0 1024 1024" id="svg1" xml:space="preserve" xmlns:xlink="http://www.w3.org/1999/xlink" xmlns="http://www.w3.org/2000/svg" xmlns:svg="http://www.w3.org/2000/svg"><defs id="defs1"><linearGradient id="linearGradient209"><stop offset="0" id="stop254" stop-color="#f89b34"/><stop offset="1" id="stop255" stop-color="#ffe41a"/></linearGradient><linearGradient id="linearGradient207"><stop offset="0" id="stop252" stop-color="#ffe51a"/><stop offset="1" id="stop253" stop-color="#c8dc42"/></linearGradient><linearGradient id="linearGradient205"><stop offset="0" id="stop250" stop-color="#c7db43"/><stop offset="1" id="stop251" stop-color="#68c380"/></linearGradient><linearGradient id="linearGradient203"><stop offset="0" id="stop248" stop-color="#69c381"/><stop offset="1" id="stop249" stop-color="#68b8e5"/></linearGradient><linearGradient id="linearGradient201"><stop offset="0" id="stop246" stop-color="#69b8e5"/><stop offset="1" id="stop247" stop-color="#948fc5"/></linearGradient><linearGradient id="linearGradient213"><stop offset="0" id="stop212" stop-color="#958ec4"/><stop offset="1" id="stop213" stop-color="#cd8cbd"/></linearGradient><linearGradient id="linearGradient211"><stop offset="0" id="stop210" stop-color="#f26667"/><stop offset="1" id="stop211" stop-color="#f7953f"/></linearGradient><linearGradient id="linearGradient101"><stop offset="0" id="stop100" stop-color="#cd8cbd"/><stop offset="1" id="stop101" stop-color="#f15e6d"/></linearGradient><linearGradient xlink:href="#linearGradient101" id="linearGradient6" gradientUnits="userSpaceOnUse" gradientTransform="matrix(1.1331045 0 0 1.192314 -1147.3618 -101.34843)" x1="1073.1807" y1="514.5152" x2="1440.7534" y2="514.5152"/><linearGradient xlink:href="#linearGradient205" id="linearGradient192" gradientUnits="userSpaceOnUse" gradientTransform="matrix(-1.1331045 0 0 1.192314 2172.4316 -101.34843)" x1="1073.1807" y1="514.5152" x2="1440.7534" y2="514.5152"/><linearGradient xlink:href="#linearGradient203" id="linearGradient195" gradientUnits="userSpaceOnUse" gradientTransform="matrix(-.80122588 -.80122588 -.84309331 .84309331 2118.9781 1251.6139)" x1="1073.1807" y1="514.5152" x2="1440.7534" y2="514.5152"/><linearGradient xlink:href="#linearGradient211" id="linearGradient196" gradientUnits="userSpaceOnUse" gradientTransform="matrix(.80122588 .80122588 -.84309331 .84309331 -227.71381 -1095.0781)" x1="1142.5338" y1="589.8399" x2="1318.3239" y2="405.56335"/><linearGradient xlink:href="#linearGradient201" id="linearGradient197" gradientUnits="userSpaceOnUse" gradientTransform="matrix(0 -1.1331045 -1.192314 0 1125.2087 2171.7004)" x1="1073.1807" y1="514.5152" x2="1440.7534" y2="514.5152"/><linearGradient xlink:href="#linearGradient209" id="linearGradient198" gradientUnits="userSpaceOnUse" gradientTransform="matrix(0 1.1331045 -1.192314 0 1125.2088 -1148.0927)" x1="1073.1807" y1="514.5152" x2="1440.7534" y2="514.5152"/><linearGradient xlink:href="#linearGradient213" id="linearGradient199" gradientUnits="userSpaceOnUse" gradientTransform="matrix(.80122588 -.80122588 -.84309331 -.84309331 -227.75356 2118.7822)" x1="1073.1807" y1="514.5152" x2="1440.7534" y2="514.5152"/><linearGradient xlink:href="#linearGradient207" id="linearGradient200" gradientUnits="userSpaceOnUse" gradientTransform="matrix(-.80122588 .80122588 -.84309331 -.84309331 2118.9385 -227.90968)" x1="1073.1807" y1="514.5152" x2="1440.7534" y2="514.5152"/><linearGradient xlink:href="#linearGradient178" id="linearGradient179" x1="541.21191" y1="523.70905" x2="837.47858" y2="646.80328" gradientUnits="userSpaceOnUse"/><linearGradient id="linearGradient178"><stop offset="0" id="stop178" stop-color="#2c8d73"/><stop offset="1" id="stop179" stop-color="#4b9f3b"/></linearGradient><linearGradient xlink:href="#linearGradient181" id="linearGradient180" x1="646.81641" y1="837.46094" x2="523.8111" y2="541.24249" gradientUnits="userSpaceOnUse"/><linearGradient id="linearGradient181"><stop offset="0" id="stop180" stop-color="#33818b"/><stop offset="1" id="stop181" stop-color="#3c68b1"/></linearGradient><linearGradient xlink:href="#linearGradient182" id="linearGradient183" x1="500.03906" y1="541.29883" x2="377.18945" y2="837.48242" gradientUnits="userSpaceOnUse"/><linearGradient id="linearGradient182"><stop offset="0" id="stop182" stop-color="#774e92"/><stop offset="1" id="stop183" stop-color="#4f60a7"/></linearGradient><linearGradient xlink:href="#linearGradient184" id="linearGradient185" x1="186.49307" y1="646.85736" x2="482.73987" y2="523.71667" gradientUnits="userSpaceOnUse"/><linearGradient id="linearGradient184"><stop offset="0" id="stop184" stop-color="#8d497e"/><stop offset="1" id="stop185" stop-color="#c23450"/></linearGradient><linearGradient xlink:href="#linearGradient186" id="linearGradient187" x1="482.67578" y1="500.06445" x2="186.46593" y2="377.20834" gradientUnits="userSpaceOnUse"/><linearGradient id="linearGradient186"><stop offset="0" id="stop186" stop-color="#e21f06"/><stop offset="1" id="stop187" stop-color="#c2131b"/></linearGradient><linearGradient xlink:href="#linearGradient188" id="linearGradient189" x1="377.13281" y1="186.54492" x2="500.12305" y2="482.70508" gradientUnits="userSpaceOnUse"/><linearGradient id="linearGradient188"><stop offset="0" id="stop188" stop-color="#eb3a00"/><stop offset="1" id="stop189" stop-color="#f77800"/></linearGradient><linearGradient xlink:href="#linearGradient174" id="linearGradient175" x1="650.79279" y1="181.66052" x2="577.63629" y2="485.94601" gradientUnits="userSpaceOnUse"/><linearGradient id="linearGradient174"><stop offset="0" id="stop174" stop-color="#ea9b08"/><stop offset=".5" id="stop190" stop-color="#e3af03"/><stop offset=".75" id="stop191" stop-color="#d6ba02"/><stop offset="1" id="stop175" stop-color="#c9c407"/></linearGradient><linearGradient xlink:href="#linearGradient176" id="linearGradient177" x1="837.43555" y1="377.16016" x2="541.13074" y2="500.09088" gradientUnits="userSpaceOnUse"/><linearGradient id="linearGradient176"><stop offset="0" id="stop176" stop-color="#a6bc0f"/><stop offset="1" id="stop177" stop-color="#53a822"/></linearGradient><linearGradient xlink:href="#linearGradient171" id="linearGradient158" gradientUnits="userSpaceOnUse" gradientTransform="matrix(0 -1.1263449 -1.1568537 0 1107.002 1139.9494)" x1="586.29755" y1="542.38409" x2="673.78778" y2="626.03735"/><linearGradient id="linearGradient171"><stop offset="0" id="stop170" stop-color="#b00200"/><stop offset="1" id="stop171" stop-color="#a70200"/></linearGradient><linearGradient xlink:href="#linearGradient173" id="linearGradient151" gradientUnits="userSpaceOnUse" gradientTransform="matrix(0 -1.1263449 -1.1568537 0 1107.002 1139.9494)" x1="722.82355" y1="514.37335" x2="598.2381" y2="514.34802"/><linearGradient id="linearGradient173"><stop offset="0" id="stop172" stop-color="#b24300"/><stop offset="1" id="stop173" stop-color="#9b5700"/></linearGradient><linearGradient xlink:href="#linearGradient159" id="linearGradient152" gradientUnits="userSpaceOnUse" gradientTransform="matrix(0 -1.1263449 -1.1568537 0 1107.002 1139.9494)" x1="674.42828" y1="400.53079" x2="586.59644" y2="485.80081"/><linearGradient id="linearGradient159"><stop offset="0" id="stop158" stop-color="#637f01"/><stop offset="1" id="stop159" stop-color="#428301"/></linearGradient><linearGradient xlink:href="#linearGradient161" id="linearGradient153" gradientUnits="userSpaceOnUse" gradientTransform="matrix(.79644612 -.79644612 -.8180191 -.8180191 488.69529 1376.7752)" x1="674.4278" y1="400.53275" x2="586.47607" y2="486.27484"/><linearGradient id="linearGradient161"><stop offset="0" id="stop160" stop-color="#0d530a"/><stop offset="1" id="stop161" stop-color="#0a4e0c"/></linearGradient><linearGradient xlink:href="#linearGradient163" id="linearGradient154" gradientUnits="userSpaceOnUse" gradientTransform="matrix(1.1263449 0 0 1.1568537 -115.94944 -83.001958)" x1="674.43176" y1="628.15173" x2="586.49524" y2="542.55963"/><linearGradient id="linearGradient163"><stop offset="0" id="stop162" stop-color="#0e4120"/><stop offset="1" id="stop163" stop-color="#0a372a"/></linearGradient><linearGradient xlink:href="#linearGradient165" id="linearGradient155" gradientUnits="userSpaceOnUse" gradientTransform="matrix(.79644612 .79644612 -.8180191 .8180191 488.69523 -352.73925)" x1="674.43225" y1="628.15192" x2="586.49524" y2="542.56024"/><linearGradient id="linearGradient165"><stop offset="0" id="stop164" stop-color="#1d205d"/><stop offset="1" id="stop165" stop-color="#231c5e"/></linearGradient><linearGradient xlink:href="#linearGradient167" id="linearGradient156" gradientUnits="userSpaceOnUse" x1="479.35938" y1="544.49219" x2="380.32422" y2="643.71094"/><linearGradient id="linearGradient167"><stop offset="0" id="stop166" stop-color="#500f2d"/><stop offset="1" id="stop167" stop-color="#3f1237"/></linearGradient><linearGradient xlink:href="#linearGradient169" id="linearGradient157" gradientUnits="userSpaceOnUse" gradientTransform="rotate(45 511.97461 512.00008)" x1="380.2435" y1="643.7323" x2="479.36063" y2="544.49243"/><linearGradient id="linearGradient169"><stop offset="0" id="stop168" stop-color="#7a0a07"/><stop offset="1" id="stop169" stop-color="#8f0a04"/></linearGradient></defs><path id="rect2" d="M1023.9999 703.6703c0 12.24394 0 24.46578-.0923 36.68749-.0607 10.3073-.1779 20.61447-.4453 30.89954-.2837 22.5344-2.2629 45.01565-5.9213 67.25295-3.8067 22.26183-10.9078 43.8113-21.08088 63.9583-20.61945 40.48081-53.52839 73.39129-94.0071 94.01169-20.13757 10.15963-41.67821 17.25773-63.91054 21.05973-22.26075 3.6732-44.74408 5.6545-67.27194 5.9217-10.29726.2661-20.59722.4218-30.89785.4669-12.2434.0714-24.46445.0714-36.68562.0714H320.3129c-12.22115 0-24.44231 0-36.68569-.0606-10.30054-.0405-20.60048-.1866-30.89786-.4453-22.54148-.2877-45.0292-2.2745-67.27197-5.944-22.23846-3.7846-43.78676-10.9085-63.91051-21.05986-40.474453-20.61649-73.382628-53.51855-94.007081-93.99013-10.169994-20.15946-17.275178-41.72376-21.0808488-63.98053C2.8006217 816.28975.82124261 793.81592.53759651 771.28886c-.26726224-10.3073-.40038136-20.61447-.44543709-30.9217C0 728.12315 0 715.9236 0 703.67966V320.33072c0-12.24407 0-24.48805.09215942-36.73201.04096-10.28505.17817485-20.59224.44543709-30.87719.2836461-22.52708 2.26333229-45.00092 5.92134369-67.23084 3.8065928-22.26176 10.9077838-43.81123 21.0808488-63.98046 20.619436-40.480777 53.52833-73.391427 94.007081-94.011821 20.13183-10.154396 41.66437-17.252253 63.8883-21.0596905C207.69585 2.7877383 230.17916.80650253 252.70702.51712013 263.01382.24985607 273.32052.11673607 283.60489.07168 295.84836 0 308.09175 0 320.29058 0h383.3742c12.24346 0 24.48687 0 36.70798.07168 10.30056.04096 20.60038.18636807 30.89785.44544013 22.52786.289792 45.01119 2.27061817 67.24964 5.92158837 22.26069 3.8068235 43.78692 10.9083665 63.93283 21.0596905 40.48882 20.614147 73.40659 53.525823 94.02934 94.011821 10.16138 20.15325 17.25908 41.71 21.05858 63.95824 3.6587 22.23729 5.638 44.7185 5.9214 67.25306.2674 10.30717.4002 20.61446.4453 30.89941.0923 12.24398.0923 24.46572.0923 36.68746Z" fill="#fff"/><path id="path193" d="M492.95038 492.6597c8.08876-8.03039 13.41769-13.98851 21.08485-26.51366 6.17759-10.09178 10.7308-19.92125 14.20023-31.11689 3.69572-11.92582 5.75954-24.2296 6.18636-36.56047.42687-12.33086-.68413-24.741-3.52975-36.7861-5.69122-24.09022-17.41525-47.43347-36.21784-66.23605l-97.18537-97.18537c-14.12346-14.12346-17.92353-15.56081-27.94651-21.53608-12.53942-7.47546-25.95989-12.60378-39.34842-15.76677-12.04512-2.84561-24.63057-4.56031-36.96143-4.13345-12.33086.42682-24.6782 2.40441-36.60403 6.10012-11.19562 3.46944-21.68317 7.96922-31.77495 14.14681-12.52515 7.66717-18.52456 12.84735-26.55426 20.93679-8.01951 8.07918-12.33038 12.90128-18.81876 22.99054-7.39579 11.50024-13.021 23.74671-16.70455 36.63445-3.40754 11.9221-5.38227 24.44286-5.55243 36.77633-.17012 12.33348 1.02994 24.77821 4.09278 36.84769 2.9518 11.63196 7.59131 23.25599 13.736 34.30817 3.60569 6.4854 7.13519 12.26063 11.67443 17.93588 8.77312 10.96872 17.83592 19.4225 24.48732 26.05682l83.21423 83.00058c18.61237 18.56458 42.92008 31.49754 66.70723 37.27139 11.89357 2.88693 24.40322 4.16972 36.5953 3.8582 12.19209-.31154 24.36168-2.07631 36.18479-5.58283 12.78075-3.79054 24.41909-8.90321 35.87162-16.34671 10.0474-6.53025 15.08467-11.07919 23.16316-19.09939Z" fill="url(#linearGradient196)"/><path id="rect33" d="M485.14957 512.11526c.04127-11.39796-.40363-19.37911-3.83875-33.65723-2.76775-11.50418-6.49863-21.67427-11.96188-32.04404-5.81956-11.0461-13.06031-21.20553-21.47774-30.22658-8.41739-9.02107-17.97828-17.01077-28.50761-23.51579-21.05866-13.01005-45.85497-21.22608-72.44584-21.22608H208.83461c-19.97359 0-23.11049 1.59495-34.42296 4.45711-14.15266 3.58076-27.49579 9.21704-39.19948 16.44759-10.52934 6.50503-20.33816 14.49472-28.75556 23.51579-8.417424 9.02105-15.977014 19.07431-21.796582 30.12041-5.46324 10.36977-9.697229 20.96741-12.464979 32.47159-3.435113 14.27812-3.787331 22.25927-3.745083 33.65723.042187 11.38349.403679 17.84148 2.949884 29.56364 2.902287 13.36151 7.7359 25.84702 14.244249 37.56469 6.020701 10.83969 13.553157 21.01427 22.153921 29.85567 8.60079 8.84138 18.47631 16.56537 29.17647 22.93403 10.31228 6.1378 21.81234 11.0766 33.97236 14.54672 7.13548 2.03626 13.71492 3.62423 20.93765 4.42751 13.95959 1.55252 26.57274 1.33687 35.96717 1.33687h116.92642c26.28809 0 52.54518-8.00094 73.44797-20.73827 10.45139-6.36865 20.20412-14.30724 28.60494-23.14862 8.40082-8.8414 15.75814-18.69448 21.63886-29.53417 6.35704-11.71767 10.97138-23.56243 13.80619-36.92394 2.487-11.72216 2.8323-18.50064 2.87352-29.88413Z" fill="url(#linearGradient6)"/><path id="path199" d="M492.61218 530.60961c8.08876 8.03039 13.41769 13.98851 21.08485 26.51366 6.17759 10.09178 10.7308 19.92125 14.20023 31.11689 3.69573 11.92582 5.86625 24.22961 6.29307 36.56047.42687 12.33086-.57722 24.741-3.42284 36.7861-5.69122 24.09022-17.60816 48.09623-36.43145 66.8781l-97.18537 96.97154c-14.13901 14.1079-17.92354 15.23972-27.94652 21.21499-12.53941 7.47547-25.95989 12.92503-39.34841 16.08802-12.04512 2.84562-24.63057 4.13193-36.96143 3.70509-12.33086-.42685-24.46454-2.51032-36.39036-6.20602-11.19563-3.46945-21.68318-7.96923-31.77496-14.14682-12.52515-7.66717-18.41774-12.9549-26.44744-21.04435-8.0195-8.07917-12.33038-12.90128-18.81876-22.99054-7.39579-11.50024-12.8065-23.74671-16.49004-36.63445-3.40755-11.92209-5.5963-24.22941-5.76646-36.56288-.17011-12.33348 1.35124-24.77821 4.41409-36.84768 2.9518-11.63197 7.59131-23.256 13.736-34.30817 3.60569-6.48541 7.13518-12.26063 11.67442-17.93589 8.77313-10.96872 17.84445-19.73507 24.48732-26.37794l82.67946-82.67945c18.5885-18.5885 42.81258-31.49755 66.59974-37.2714 11.89357-2.88692 24.40321-4.16972 36.59529-3.8582 12.1921.31155 24.36169 2.07631 36.18479 5.58284 12.78075 3.79053 24.41909 8.90321 35.87162 16.34671 10.04739 6.53025 15.08468 11.07919 23.16316 19.09938Z" fill="url(#linearGradient199)"/><path id="path197" d="M511.74507 539.18904c11.39796-.04127 19.37911.18985 33.65723 3.62497 11.50418 2.76775 21.67427 6.39122 32.04404 11.85447 11.0461 5.81956 21.52614 12.95372 30.54718 21.37115 9.02108 8.41739 17.01077 17.97828 23.51579 28.50761 13.01006 21.05866 21.76095 46.28275 21.76106 72.87362l.00055 137.44087c.00008 19.97359-2.02308 23.75276-4.88524 35.06523-3.58075 14.15266-9.43134 27.49579-16.66188 39.19948-6.50503 10.52934-14.70843 20.33816-23.72949 28.75557-9.02106 8.41741-18.96754 15.65642-30.01363 21.47599-10.36977 5.46324-20.96742 9.26982-32.4716 12.03757-14.27812 3.43511-22.25927 3.78734-33.65723 3.74509-11.38348-.04219-17.52038-.40369-29.24254-2.94989-13.36151-2.90229-25.63307-7.30849-37.35074-13.81684-10.83969-6.02069-21.22822-13.55315-30.06962-22.15391-8.84138-8.6008-16.67215-18.15573-23.0408-28.8559-6.1378-10.31228-11.07661-21.81234-14.54672-33.97236-2.03627-7.13548-3.94534-13.71491-4.74862-20.93765-1.55252-13.95959-1.23818-26.57273-1.22958-35.96717l.10698-116.92641c.02405-26.28809 7.78667-52.54519 20.524-73.44798 6.36866-10.45139 14.30724-20.20412 23.14862-28.60494 8.84141-8.40082 18.69449-15.75814 29.53417-21.63885 11.71767-6.35704 23.56243-10.97138 36.92394-13.80619 11.72216-2.487 18.50065-2.83231 29.88413-2.87353Z" fill="url(#linearGradient197)"/><path id="path194" d="M531.6791 531.38843c8.0304-8.08876 13.98851-13.41769 26.51367-21.08485 10.09177-6.17759 19.92124-10.7308 31.11688-14.20024 11.92582-3.69572 24.22961-5.75954 36.56048-6.18636 12.33085-.42687 24.74099.68413 36.7861 3.52975 24.09021 5.69123 47.42317 16.89111 66.23604 35.68339l97.29185 97.18537c14.13119 14.11573 16.09677 18.45799 22.07205 28.48097 7.47546 12.53942 12.71099 25.95989 15.87398 39.34842 2.84562 12.04512 4.13194 24.63056 3.70508 36.96142-.42683 12.33086-2.5114 24.78503-6.20712 36.71086-3.46944 11.19563-7.96922 21.4695-14.14681 31.56128-7.66716 12.52515-13.06163 18.41773-21.15108 26.44743-8.07917 8.01952-12.90128 12.00976-22.99053 18.49814-11.50025 7.39578-23.74671 12.9135-36.63446 16.59705-11.92209 3.40754-24.44286 5.2758-36.77633 5.44596-12.33348.17012-24.77821-1.03061-36.84769-4.09344-11.63196-2.9518-22.82799-7.48466-33.88017-13.62934-6.4854-3.6057-12.68863-7.1352-18.36387-11.67444-10.96872-8.77312-19.73508-17.84445-26.37794-24.48732l-82.67947-82.67946c-18.58849-18.58849-31.49753-42.81257-37.27139-66.59973-2.88693-11.89356-4.16972-24.40322-3.8582-36.59529.31154-12.19209 2.07631-24.36168 5.58283-36.1848 3.79054-12.78075 8.90322-24.41909 16.34672-35.87162 6.53024-10.04739 11.07919-15.08466 19.09938-23.16315Z" fill="url(#linearGradient195)"/><path id="path192" d="M539.92026 512.11526c-.04127-11.39796.40363-19.37911 3.83875-33.65723 2.76775-11.50418 6.49863-21.67427 11.96188-32.04404 5.81956-11.0461 13.06031-21.20553 21.47774-30.22658 8.41739-9.02107 17.97828-17.01077 28.50761-23.51579 21.05866-13.01005 45.85497-21.22608 72.44584-21.22608h137.44087c19.97359 0 23.75276 1.59495 35.06523 4.45711 14.15266 3.58076 27.49579 8.89634 39.19948 16.12689 10.52934 6.50503 20.44506 14.49472 28.86246 23.51579 8.41742 9.02105 15.97701 19.07431 21.79658 30.12041 5.46324 10.36977 9.80466 21.28811 12.57241 32.79229 3.43511 14.27812 4.00097 22.25927 3.95872 33.65723-.04218 11.38349-.61732 17.84148-3.16352 29.56364-2.90229 13.36151-7.7365 26.16763-14.24485 37.8853-6.0207 10.83969-13.55316 21.01427-22.15392 29.85567-8.60079 8.84138-18.47631 16.56537-29.17647 22.93403-10.31228 6.1378-22.02607 10.75599-34.18609 14.22611-7.13548 2.03626-13.71492 3.62423-20.93765 4.42751-13.95959 1.55252-26.57274 1.33687-35.96717 1.33687H680.29174c-26.28809 0-52.54518-8.00094-73.44797-20.73827-10.45139-6.36865-20.20412-14.30724-28.60494-23.14862-8.40082-8.8414-15.7583-18.90881-21.63902-29.7485-6.35704-11.71767-10.75712-23.3481-13.59193-36.70961-2.487-11.72216-3.0464-18.50064-3.08762-29.88413Z" fill="url(#linearGradient192)"/><path id="path198" d="M531.34064 491.88115c8.03039 8.08877 13.98851 13.41769 26.51366 21.08485 10.09178 6.17759 19.92125 10.7308 31.11689 14.20023 11.92582 3.69573 24.2296 5.75954 36.56047 6.18638 12.33085.42686 25.81083-.68414 37.85593-3.52975 24.09022-5.69123 46.36364-16.34525 65.16622-35.14783l97.18537-97.18538c14.12346-14.12346 16.73737-18.99354 22.71263-29.01653 7.47546-12.53941 12.71072-25.95989 15.87371-39.34841 2.84561-12.04513 3.91838-24.63057 3.49152-36.96143-.42682-12.33086-2.51085-24.78503-6.20656-36.71085-3.46944-11.19563-8.29005-21.89684-14.46764-31.98862-7.66717-12.52514-13.06164-18.41772-21.15108-26.44743-8.07918-8.01951-13.11476-12.11672-23.20402-18.6051-11.50024-7.39579-23.53323-12.48537-36.42097-16.16892-11.9221-3.40753-24.44286-5.2758-36.77633-5.44595-12.33348-.17013-24.24293 1.0301-36.3124 4.09294-11.63198 2.9518-23.256 7.59131-34.30817 13.736-6.48541 3.60569-12.79592 7.13519-18.47117 11.67443-10.96872 8.77312-19.73508 18.59316-26.37794 25.23602l-82.67946 82.67947c-18.58848 18.58849-31.28395 42.06387-37.0578 65.85102-2.88692 11.89357-4.16972 24.40322-3.8582 36.59529.31154 12.1921 2.07635 24.36169 5.58287 36.1848 3.79054 12.78075 8.90321 24.4191 16.34672 35.87162 6.53025 10.0474 10.86555 15.08467 18.88575 23.16315Z" fill="url(#linearGradient200)"/><path id="path196" d="M511.74507 484.41873c11.39796.04128 19.37911-.40363 33.65723-3.83875 11.50418-2.76775 21.67427-6.49863 32.04404-11.96188 11.0461-5.81956 21.41914-12.73969 30.4402-21.15711 9.02106-8.41739 17.01076-17.97829 23.51579-28.50761 13.01005-21.05867 21.8892-46.17561 21.86853-72.76646l-.10685-137.44088c-.01553-19.97358-1.7019-23.75276-4.56407-35.06523-3.58076-14.15265-9.3242-27.49579-16.55474-39.19948-6.50504-10.52934-14.49473-20.33816-23.5158-28.75556-9.02104-8.417423-19.60941-15.977009-30.6555-21.796576-10.36977-5.463241-20.96742-9.376475-32.4716-12.144225-14.27812-3.435104-22.25927-3.787321-33.65723-3.745085-11.38349.042193-16.77165.403687-28.49381 2.949894-13.36151 2.902284-26.16804 7.415137-37.88571 13.923482-10.83969 6.020711-21.76308 13.553159-30.60447 22.15392-8.84139 8.60079-16.56538 18.47631-22.93403 29.17647-6.13781 10.31229-11.07661 21.81234-14.54672 33.97236-2.03627 7.13548-3.62424 13.71492-4.42752 20.93765-1.55252 13.95959-1.22958 26.57274-1.22958 35.96717v116.92642c0 26.28809 7.89365 52.54519 20.63098 73.44797 6.36866 10.45139 14.30724 20.20412 23.14862 28.60494 8.84141 8.40082 18.69449 15.75814 29.53417 21.63886 11.71767 6.35704 23.56243 10.97139 36.92394 13.80619 11.72217 2.487 18.50064 2.83231 29.88413 2.87352Z" fill="url(#linearGradient198)"/><path d="M469.78981 511.7598c6.21924-4.04224 10.61061-7.58089 14.90033-11.3983-.3664-5.57622-1.09605-11.51199-2.72055-18.79937-.04212-.0089-.06641-.00775-.10865-.01671-13.36151-2.8348-25.20615-7.44839-36.92382-13.80543-10.83968-5.88072-20.69388-13.23819-29.53529-21.63901-8.84138-8.40082-16.77899-18.15407-23.14765-28.60546-7.75483-12.72617-13.71913-27.44951-17.22596-42.94371-9.076-1.99672-18.46991-3.10711-28.11024-3.10711H208.83369c-15.42284 0-21.51982 1.20145-28.55531 2.95249 1.97957 3.11511 4.07068 6.13143 6.44824 9.10401 8.77312 10.96872 17.83562 19.4226 24.48702 26.05692l83.21479 83.00113c7.22849 7.20993 15.41039 13.55422 23.97394 18.97489 13.39501-8.42801 27.96539-14.59291 42.39416-18.0952 11.89357-2.88692 24.40369-4.16877 36.59577-3.85725 12.1921.31155 24.36103 2.07457 36.18413 5.5811 12.78075 3.79053 24.42026 8.90486 35.87279 16.34836.13835.08993.20411.15947.34059.24865Z" id="path134" fill="url(#linearGradient187)" stroke-width=".999997"/><path d="M375.0721 648.88631c3.51219-15.43146 9.45578-30.09509 17.18208-42.77446 6.36866-10.45139 14.30627-20.20255 23.14765-28.60337 8.84141-8.40082 18.69561-15.75831 29.53529-21.63902 11.71767-6.35704 23.56231-10.9727 36.92382-13.80751.16171-.03431.25595-.03128.41581-.06478 1.54902-7.30157 2.14905-12.93809 2.48025-18.7116-4.32542-3.88187-8.78478-7.48424-14.96928-11.52577-11.45253 7.4435-23.09204 12.55574-35.87279 16.34628-11.82311 3.50652-23.99204 5.27164-36.18413 5.58318-12.19208.31152-24.7022-.9724-36.59577-3.85933-14.54892-3.53146-29.24625-9.75899-42.73266-18.29579-8.6879 5.46633-16.89183 11.86236-24.20494 19.17547l-82.68002 82.68002c-6.64287 6.64287-15.71389 15.40931-24.48702 26.37803-2.41546 3.01996-4.53295 6.09013-6.54018 9.25864 3.73297.84453 7.47389 1.54487 11.39412 1.98086 13.95959 1.55252 26.57239 1.33729 35.96682 1.33729h116.92716c10.20984 0 20.40516-1.23565 30.29379-3.45814Z" id="path133" fill="url(#linearGradient185)" stroke-width=".999997"/><path d="M374.67509 843.23417c6.30722-3.78238 11.446-6.79406 22.47482-17.79861l97.18543-96.9716c6.98028-6.96493 13.06914-14.78789 18.14824-22.81586-8.30717-13.29231-14.50509-28.14989-17.97481-42.44444-2.88693-11.89356-4.17086-24.40369-3.85934-36.59576.31154-12.19209 2.07667-24.36101 5.58319-36.18413 3.74192-12.61681 8.79175-24.11933 16.08091-35.42981-4.05396-6.42988-7.73199-11.18837-11.41711-15.4248-5.76119.31639-11.43473.92236-18.61967 2.42801v.00209c-2.83481 13.36151-7.45048 25.20615-13.80752 36.92382-5.88072 10.83969-13.23819 20.69389-21.63901 29.53529-8.40082 8.84138-18.15198 16.779-28.60337 23.14765-12.78451 7.79037-27.58234 13.78035-43.15475 17.28029-2.27789 10.00833-3.33263 20.33201-3.34209 30.67408l-.10698 116.92716c-.0086 9.39444-.32252 22.00723 1.23 35.96682.41234 3.70753 1.04171 7.24907 1.82206 10.7798Z" id="path132" fill="url(#linearGradient183)" stroke-width=".999997"/><path d="M543.13275 542.39383c-7.40386-1.67791-13.57764-2.44295-19.17227-2.83339-3.81106 4.28426-7.34439 8.77893-11.38159 14.99054-.09547.1469-.17065.29601-.26536.44298.47395.75173.8914 1.32571 1.38325 2.12921 6.17759 10.09178 10.73092 19.92142 14.20035 31.11706 3.69573 11.92582 5.86693 24.22938 6.29375 36.56024.42687 12.33086-.57875 24.74081-3.42437 36.78591-3.58073 15.15679-9.66554 30.44116-18.28293 44.06172 5.51656 8.82705 11.87786 16.73666 19.29587 24.15467l82.68001 82.68001c6.64286 6.64287 15.40932 15.71391 26.37804 24.48703 2.84403 2.27475 6.24789 4.5095 9.21894 6.41376 1.71341-6.9292 3.21526-13.272 3.21519-28.52083l-.00055-137.44202c-.00004-9.86088-1.46214-19.47097-3.54736-28.73919-15.27311-3.52502-30.31933-9.42121-42.88054-17.07551-10.45139-6.36865-20.20255-14.30627-28.60337-23.14765-8.40082-8.8414-15.75846-18.90993-21.63918-29.74962-6.2754-11.56719-10.62436-23.16323-13.46788-36.31492Z" id="path131" fill="url(#linearGradient180)" stroke-width=".999997"/><path d="M540.3172 523.40258c.33404 5.73271 1.15063 11.34019 2.69018 18.59668.0364.17159.08838.22348.12537.39457.86676.19643 1.3543.19931 2.27033.41969 11.50418 2.76775 21.67294 6.39182 32.04271 11.85507 11.0461 5.81956 21.52649 12.9541 30.54753 21.37153 9.02108 8.41739 17.01038 17.97792 23.5154 28.50725 8.18544 13.24933 14.6772 28.4097 18.215 44.13416 10.14248 2.34088 20.07733 3.66292 30.568 3.66292h116.92716c9.39443 0 22.00723.21523 35.96682-1.33729 3.78278-.4207 7.93025-1.07562 11.53242-1.87847-3.73665-6.21296-7.62298-11.9133-18.53448-22.81286l-97.2919-97.18542c-7.02149-7.0138-14.0274-12.18986-22.11283-17.2898-13.67193 8.68177-28.16458 14.38577-43.39137 17.98305-12.0451 2.84561-25.52489 3.95605-37.85574 3.52919-12.33087-.42684-24.63442-2.49132-36.56024-6.18705-11.19564-3.46943-21.02528-8.02276-31.11706-14.20035-.70886-.43392-1.21011-.8004-1.87847-1.22027-6.54399 4.13121-11.35432 7.88379-15.65883 11.6574Z" id="path130" fill="url(#linearGradient179)" stroke-width=".999997"/><path d="M649.98018 374.5994c-3.52864 15.80598-10.35536 31.04316-18.57845 44.35344-6.50503 10.52932-14.49434 20.08986-23.5154 28.50725-9.02106 8.41742-19.39444 15.33794-30.44054 21.1575-10.36977 5.46325-20.53853 9.19472-32.04271 11.96247-.80901.19464-1.42364.29007-2.19399.46596-1.69465 7.49824-2.44629 13.52329-2.82502 19.19847 4.27196 3.70843 9.0655 7.40071 15.59196 11.50069.78082-.49293 1.3801-.92948 2.21697-1.44177 10.09177-6.17759 19.92142-10.7309 31.11706-14.20034 11.92582-3.69572 24.22937-5.76023 36.56024-6.18705 12.33085-.42687 24.7408.68566 36.78591 3.53128 15.09907 3.5671 30.54461 9.82882 44.1227 18.39331 7.95836-5.05361 14.85637-10.24863 21.77433-17.16659l97.18543-97.18334c10.8128-10.8128 15.37282-17.05149 19.07268-23.18752-6.86323-1.68964-14.08138-2.85846-29.21937-2.85846H678.15205c-9.9247 0-18.84819 1.04354-28.17187 3.1547Z" id="path129" fill="url(#linearGradient177)" stroke-width=".999997"/><path d="M374.79628 180.006c-.82971 3.68668-1.51266 7.27536-1.94325 11.147-1.55252 13.95959-1.22999 26.57239-1.23 35.96682l-.00001 116.92716c0 10.2832 1.15205 20.54975 3.4052 30.50483 15.95826 3.51082 30.91134 9.82693 44.33533 18.12027 10.52933 6.50502 20.08986 14.49433 28.50725 23.5154 8.41743 9.02105 15.65856 19.18083 21.47812 30.22693 5.46325 10.36977 9.19472 20.53853 11.96247 32.04271.27544 1.14485.41992 2.03612.6582 3.10501 7.37537 1.55981 13.08698 2.1551 18.9519 2.47608 3.68873-4.20604 7.58892-8.92183 11.59769-15.23047-.02366-.03636-.04107-.05337-.06478-.08985-7.44351-11.45252-12.55611-23.08995-16.34665-35.8707-3.50652-11.82311-5.27169-23.99412-5.58323-36.18622-.31152-12.19207.97242-24.70011 3.85934-36.59368 3.51525-14.48215 9.49519-29.11102 17.97146-42.5467-5.00587-7.82975-10.86461-15.25677-17.68148-22.07363l-97.18543-97.18543c-11.14013-11.14014-16.27762-14.42024-22.69213-18.25553Zm0-.18468c-.82971 3.68668-1.51266 7.46004-1.94325 11.33168-1.55252 13.95959-1.22999 26.57239-1.23 35.96682l-.00001 116.92716c0 10.2832 1.15205 20.54975 3.4052 30.50483 15.95826 3.51082 30.91134 9.82693 44.33533 18.12027 10.52933 6.50502 20.08986 14.49433 28.50725 23.5154 8.41743 9.02105 15.65856 19.18083 21.47812 30.22693 5.46325 10.36977 9.19472 20.53853 11.96247 32.04271.27544 1.14485.41992 2.03612.6582 3.10501 7.37537 1.55981 13.08698 2.1551 18.9519 2.47608 3.68873-4.20604 7.58892-8.92183 11.59769-15.23047-.02366-.03636-.04107-.05337-.06478-.08985-7.44351-11.45252-12.55611-23.08995-16.34665-35.8707-3.50652-11.82311-5.27169-23.99412-5.58323-36.18622-.31152-12.19207.97242-24.70011 3.85934-36.59368 3.51525-14.48215 9.49519-29.11102 17.97146-42.5467-5.00587-7.82975-10.86461-15.25677-17.68148-22.07363l-97.18543-97.18543c-11.14013-11.14014-16.27762-14.60492-22.69213-18.44021Z" id="path135" fill="url(#linearGradient189)" stroke-width=".999997"/><path d="M650.05304 179.96574c-3.04887 1.94505-6.64045 4.00293-9.55405 6.33332-10.96872 8.77312-19.73516 18.59286-26.37803 25.23572l-82.68002 82.68002c-7.27139 7.27139-13.6395 14.67317-19.08562 23.30579 8.80152 13.76661 14.90821 28.80558 18.53608 44.1619 2.84562 12.0451 3.95815 24.45505 3.53128 36.78591-.42682 12.33087-2.49133 24.63442-6.18705 36.56024-3.46943 11.19564-8.02275 21.02527-14.20034 31.11705-.61502 1.0047-.92894 1.7374-1.51649 2.66205 4.10704 6.31008 7.50692 10.7658 11.42079 15.13435 5.67767-.39517 11.70779-1.1695 19.2695-2.89607.20368-.90122.31988-1.63429.54954-2.5889 2.76775-11.50418 6.49923-21.67294 11.96248-32.04271 5.81956-11.0461 13.06069-21.20588 21.47812-30.22693 8.41739-9.02107 17.97792-17.01038 28.50725-23.5154 13.19879-8.15421 28.61679-14.52749 44.2737-18.07268 2.05415-9.20123 3.29899-18.62884 3.29138-28.41275l-.10684-137.43994c-.01211-15.57985-1.32638-21.64662-3.11168-28.78097Z" id="path128" fill="url(#linearGradient175)" stroke-width=".999997"/><path d="M469.78772 511.7598c-.13648-.08918-.20015-.15872-.3385-.24865-11.45253-7.4435-23.09204-12.55783-35.87279-16.34836-11.8231-3.50653-23.99203-5.26955-36.18413-5.5811-12.19208-.31152-24.7022.97033-36.59577 3.85725-14.42877 3.50229-28.99915 9.66719-42.39416 18.0952 13.48641 8.5368 28.18374 14.76433 42.73266 18.29579 11.89357 2.88693 24.40369 4.17085 36.59577 3.85933 12.19209-.31154 24.36102-2.07666 36.18413-5.58318 12.78075-3.79054 24.42026-8.90278 35.87279-16.34628Z" id="path150" fill="url(#linearGradient157)" stroke-width=".999997"/><path d="M375.0721 648.88631c15.57241-3.49994 30.37024-9.48992 43.15475-17.28029 10.45139-6.36865 20.20255-14.30627 28.60337-23.14765 8.40082-8.8414 15.75829-18.6956 21.63901-29.53529 6.35704-11.71767 10.97271-23.56231 13.80752-36.92382v-.00209c-.15986.0335-.2541.03047-.41581.06478-13.36151 2.83481-25.20615 7.45047-36.92382 13.80751-10.83968 5.88071-20.69388 13.2382-29.53529 21.63902-8.84138 8.40082-16.77899 18.15198-23.14765 28.60337-7.7263 12.67937-13.66989 27.343-17.18208 42.77446Z" id="path149" fill="url(#linearGradient156)" stroke-width=".999997"/><path d="M512.31353 554.99396c-7.28916 11.31048-12.33899 22.813-16.08091 35.42981-3.50652 11.82312-5.27165 23.99204-5.58319 36.18413-.31152 12.19207.97241 24.7022 3.85934 36.59576 3.46972 14.29455 9.66764 29.15213 17.97481 42.44444 8.61739-13.62056 14.7022-28.90493 18.28293-44.06172 2.84562-12.0451 3.85124-24.45505 3.42437-36.78591-.42682-12.33086-2.59802-24.63442-6.29375-36.56024-3.46943-11.19564-8.02276-21.02528-14.20035-31.11706-.49185-.8035-.9093-1.37748-1.38325-2.12921Z" id="path148" fill="url(#linearGradient155)" stroke-width=".999997"/><path d="M543.13275 542.39383c2.84352 13.15169 7.19248 24.74773 13.46788 36.31492 5.88072 10.83969 13.23836 20.90822 21.63918 29.74962 8.40082 8.84138 18.15198 16.779 28.60337 23.14765 12.56121 7.6543 27.60743 13.55049 42.88054 17.07551-3.5378-15.72446-8.36798-28.19532-18.215-44.13416-6.50502-10.52933-14.49432-20.08986-23.5154-28.50725-9.02104-8.41743-19.50143-15.55197-30.54753-21.37153-10.36977-5.46325-20.53853-9.08732-32.04271-11.85507-.91603-.22038-1.40357-.22326-2.27033-.41969Z" id="path147" fill="url(#linearGradient154)" stroke-width=".999997"/><path d="M706.77891 511.84061c-13.57809-8.56449-26.27089-14.17589-44.1227-18.39331-12.04511-2.84561-24.45506-3.95815-36.78591-3.53128-12.33087.42682-24.63442 2.49133-36.56024 6.18705-11.19564 3.46944-21.02529 8.02275-31.11706 14.20034-.83687.51229-1.43615.94884-2.21697 1.44177.66836.41987 1.16961.78635 1.87847 1.22027 10.09178 6.17759 19.92142 10.73092 31.11706 14.20035 11.92582 3.69573 24.22937 5.76021 36.56024 6.18705 12.33085.42686 25.81064-.68358 37.85574-3.52919 15.22679-3.59728 29.71944-9.30128 43.39137-17.98305Z" id="path146" fill="url(#linearGradient153)" stroke-width=".999997"/><path d="M481.96959 481.56213c-.23828-1.06889-.38276-1.96016-.6582-3.10501-2.76775-11.50418-6.49922-21.67294-11.96247-32.04271-5.81956-11.0461-13.06069-21.20588-21.47812-30.22693-8.41739-9.02107-17.97792-17.01038-28.50725-23.5154-13.42399-8.29334-28.37707-14.60945-44.33533-18.12027 3.50683 15.4942 9.47113 30.21754 17.22596 42.94371 6.36866 10.45139 14.30627 20.20464 23.14765 28.60546 8.84141 8.40082 18.69561 15.75829 29.53529 21.63901 11.71767 6.35704 23.56231 10.97063 36.92382 13.80543.04224.00896.06653.00781.10865.01671Z" id="path151" fill="url(#linearGradient158)" stroke-width=".999997"/><path d="M649.98018 374.5994c-15.65691 3.54519-31.07491 9.91847-44.2737 18.07268-10.52933 6.50502-20.08986 14.49433-28.50725 23.5154-8.41743 9.02105-15.65856 19.18083-21.47812 30.22693-5.46325 10.36977-9.19473 20.53853-11.96248 32.04271-.22966.95461-.34586 1.68768-.54954 2.5889.77035-.17589 1.38498-.27132 2.19399-.46596 11.50418-2.76775 21.67294-6.49922 32.04271-11.96247 11.0461-5.81956 21.41948-12.74008 30.44054-21.1575 9.02106-8.41739 17.01037-17.97793 23.5154-28.50725 8.22309-13.31028 15.04981-28.54746 18.57845-44.35344Z" id="path145" fill="url(#linearGradient152)" stroke-width=".999997"/><path d="M512.35532 317.52059c-8.47627 13.43568-14.45621 28.06455-17.97146 42.5467-2.88692 11.89357-4.17086 24.40161-3.85934 36.59368.31154 12.1921 2.07671 24.36311 5.58323 36.18622 3.79054 12.78075 8.90314 24.41818 16.34665 35.8707.02371.03648.04112.05349.06478.08985.58755-.92465.90109-1.65735 1.51611-2.66205 6.17759-10.09178 10.73091-19.92141 14.20034-31.11705 3.69572-11.92582 5.76023-24.22937 6.18705-36.56024.42687-12.33086-.68566-24.74081-3.53128-36.78591-3.62787-15.35632-9.73456-30.39529-18.53608-44.1619Z" id="path144" fill="url(#linearGradient151)" stroke-width=".999997"/></svg>